<?xml version="1.0" standalone="no"?>
<!DOCTYPE svg PUBLIC "-//W3C//DTD SVG 20010904//EN"
 "http://www.w3.org/TR/2001/REC-SVG-20010904/DTD/svg10.dtd">
<svg version="1.0" xmlns="http://www.w3.org/2000/svg"
 width="500.000000pt" height="500.000000pt" viewBox="0 0 500.000000 500.000000"
 preserveAspectRatio="xMidYMid meet">

<g transform="translate(0.000000,500.000000) scale(0.100000,-0.100000)"
fill="#000000" stroke="none">
<path d="M2210 4755 l0 -245 -145 0 -145 0 0 -90 0 -90 230 0 230 0 0 335 0
335 -85 0 -85 0 0 -245z"/>
<path d="M2480 4795 l0 -205 225 0 225 0 0 -40 0 -40 -225 0 -226 0 3 -87 3
-88 310 0 310 0 0 203 0 203 -222 -1 -223 -1 0 40 0 41 223 2 222 3 3 88 3 87
-316 0 -315 0 0 -205z"/>
</g>
</svg>
